<svg width="24" height="24" viewBox="0 0 24 24" fill="none" xmlns="http://www.w3.org/2000/svg">
<path fill-rule="evenodd" clip-rule="evenodd" d="M21 20V6C21 4.9 20.1 4 19 4H18V2H16V4H8V2H6V4H5C3.89 4 3.01 4.9 3.01 6L3 20C3 21.1 3.89 22 5 22H19C20.1 22 21 21.1 21 20ZM19 8H5V6H19V8ZM19 20V10H5V20H19ZM9.44034 12H10.5966V17.8182H9.36648V13.1676H9.33239L8 14.0028V12.9119L9.44034 12ZM16.2777 15.8778C16.2805 17.054 15.3999 17.8977 14.1044 17.8977C12.8999 17.8977 12.022 17.179 11.9993 16.1733H13.1925C13.2209 16.625 13.6158 16.9318 14.1044 16.9318C14.6811 16.9318 15.093 16.5142 15.093 15.9091C15.093 15.2983 14.6726 14.875 14.0874 14.8722C13.7436 14.8722 13.397 15.0227 13.218 15.2642L12.1243 15.0682L12.3999 12H15.9567V13.0057H13.4141L13.2635 14.4631H13.2976C13.5021 14.1761 13.9425 13.9631 14.4538 13.9631C15.5021 13.9631 16.2805 14.7642 16.2777 15.8778Z" fill="#4F4F4F"/>
</svg>
