<svg width="136" height="36" viewBox="0 0 136 36" fill="none" xmlns="http://www.w3.org/2000/svg">
<path d="M31.7278 34.7973H39.4463V30.8264H39.6855C40.6743 33.0909 42.875 35.1481 46.5748 35.1481C51.997 35.1481 56.3666 30.9061 56.3666 22.5656C56.3666 13.9221 51.7418 9.98309 46.6227 9.98309C42.7475 9.98309 40.6264 12.2476 39.6855 14.4962H39.5261V2.13696H31.7278V34.7973ZM39.3666 22.5497C39.3666 18.5469 41.0251 16.075 43.8797 16.075C46.7662 16.075 48.3609 18.6107 48.3609 22.5497C48.3609 26.5046 46.7662 29.0722 43.8797 29.0722C41.0251 29.0722 39.3666 26.5206 39.3666 22.5497Z" fill="#EE8100" fill-opacity="0.95"/>
<path d="M71.9033 35.2598C78.3302 35.2598 82.5562 32.15 83.4493 27.3339L76.2889 27.1266C75.6829 28.7532 74.0881 29.6303 72.0469 29.6303C69.0487 29.6303 67.1988 27.6369 67.1988 24.6388V24.4315H83.529V22.4859C83.529 14.4165 78.6172 9.98309 71.6641 9.98309C64.2645 9.98309 59.5122 15.0544 59.5122 22.6454C59.5122 30.4915 64.2007 35.2598 71.9033 35.2598ZM67.1988 19.9024C67.3105 17.4624 69.2401 15.6125 71.8236 15.6125C74.3911 15.6125 76.241 17.3987 76.2729 19.9024H67.1988Z" fill="#EE8100" fill-opacity="0.95"/>
<path d="M95.3102 2.13696H87.5119V34.7973H95.3102V2.13696Z" fill="#EE8100" fill-opacity="0.95"/>
<path d="M100.274 34.7973H108.072V10.302H100.274V34.7973ZM104.181 7.44745C106.398 7.44745 108.184 5.77297 108.184 3.71575C108.184 1.65853 106.398 0 104.181 0C101.98 0 100.178 1.65853 100.178 3.71575C100.178 5.77297 101.98 7.44745 104.181 7.44745Z" fill="#EE8100" fill-opacity="0.95"/>
<path d="M119.67 10.302H111.76L118.522 22.5497L111.409 34.7973H119.319L123.705 26.6641L128.202 34.7973H136L128.903 22.5497L135.745 10.302H127.883L123.705 18.3714L119.67 10.302Z" fill="#EE8100" fill-opacity="0.95"/>
<path d="M19.7589 2.12988V22.5107C19.7589 25.9075 17.3508 28.3475 13.8264 28.3475C10.2861 28.3475 7.89397 25.9075 7.89397 22.5107V2.12988H0V7.65749V23.1964C0 30.5004 5.51781 35.2048 13.8264 35.2048C22.0712 35.2048 27.6369 30.5004 27.6369 23.1964V4.85075L23.6979 2.12988H19.7589Z" fill="#EE8100" fill-opacity="0.95"/>
</svg>
